<svg width="182" height="53" viewBox="0 0 182 53" fill="none" xmlns="http://www.w3.org/2000/svg">
<path d="M14.8031 26.536C14.8031 33.8801 32.6175 30.2081 36.2399 28.9675V33.8057C30.0619 36.9567 6.3921 38.3709 5.99512 26.536C6.3921 14.7011 30.0619 16.1153 36.2399 19.2663V24.1045C32.6175 22.8639 14.8031 19.1919 14.8031 26.536ZM63.5347 35.2199V29.0171H46.415V35.2199H38.9717V17.8521H46.415V24.0549H63.5347V17.8521H70.9781V35.2199H63.5347ZM89.8369 35.9642C82.5424 36.0387 72.9901 33.0613 73.0149 26.536C72.9653 19.961 82.4928 17.0085 89.8369 17.1078C97.181 17.0085 106.758 19.961 106.708 26.536C106.733 33.0613 97.1314 36.0387 89.8369 35.9642ZM81.8229 26.536C81.8229 29.5133 85.4701 30.9276 89.8369 30.9276C94.2037 30.9276 97.9005 29.5133 97.9005 26.536C97.9005 23.5587 94.2037 22.1444 89.8369 22.1444C85.4701 22.1444 81.8229 23.5587 81.8229 26.536ZM107.978 35.2199V17.8521H135.245C140.108 17.8521 140.629 24.7248 136.858 26.2383V26.6601C141.423 27.7517 141.051 35.2199 135.99 35.2199H107.978ZM132.342 24.0549C133.285 24.0549 133.26 22.8143 132.342 22.8143H115.421V24.0549H132.342ZM132.963 29.0171H115.421V30.2577H132.963C133.905 30.2577 133.881 29.0171 132.963 29.0171ZM169.08 35.2199L165.508 29.0171H152.482L148.884 35.2199H140.324L150.323 17.8521H167.641L177.64 35.2199H169.08ZM155.335 24.0549H162.63L161.91 22.8143C161.91 22.8143 156.203 22.8143 156.055 22.8143L155.335 24.0549Z" fill="white"/>
<path fill-rule="evenodd" clip-rule="evenodd" d="M172.634 16.9614C173.467 16.0409 173.503 15.5301 173.479 15.3479C173.455 15.1657 173.288 14.6816 172.245 14.0082C171.22 13.3465 169.627 12.6924 167.411 12.1051C162.998 10.9357 156.608 10.1559 148.64 9.82751C132.739 9.17217 110.961 10.3284 87.0947 13.472C63.2287 16.6155 41.894 21.1379 26.7048 25.8883C19.094 28.2686 13.1231 30.6766 9.16372 32.9488C7.17541 34.0898 5.806 35.1342 4.98757 36.0386C4.15463 36.9591 4.11883 37.4699 4.14282 37.6521C4.16682 37.8343 4.33367 38.3184 5.37655 38.9918C6.40127 39.6535 7.99439 40.3076 10.2103 40.8949C14.623 42.0643 21.0138 42.8441 28.9814 43.1725C44.8826 43.8278 66.6607 42.6715 90.5267 39.528C114.393 36.3845 135.727 31.8621 150.917 27.1117C158.527 24.7314 164.498 22.3234 168.458 20.0512C170.446 18.9102 171.815 17.8658 172.634 16.9614ZM90.7967 41.5779C138.69 35.2697 176.625 23.4052 175.528 15.0779C174.432 6.75061 134.718 5.11384 86.8247 11.4221C38.9318 17.7303 0.996095 29.5948 2.09293 37.9221C3.18977 46.2494 42.9038 47.8862 90.7967 41.5779Z" fill="#8FFF00"/>
<g clip-path="url(#clip0_22_34)">
<path d="M14.8031 26.536C14.8031 33.8801 32.6175 30.2081 36.2399 28.9675V33.8057C30.0619 36.9567 6.3921 38.3709 5.99512 26.536C6.3921 14.7011 30.0619 16.1153 36.2399 19.2663V24.1045C32.6175 22.8639 14.8031 19.1919 14.8031 26.536ZM63.5347 35.2199V29.0171H46.415V35.2199H38.9717V17.8521H46.415V24.0549H63.5347V17.8521H70.9781V35.2199H63.5347ZM89.8369 35.9642C82.5424 36.0387 72.9901 33.0613 73.0149 26.536C72.9653 19.961 82.4928 17.0085 89.8369 17.1078C97.181 17.0085 106.758 19.961 106.708 26.536C106.733 33.0613 97.1314 36.0387 89.8369 35.9642ZM81.8229 26.536C81.8229 29.5133 85.4701 30.9276 89.8369 30.9276C94.2037 30.9276 97.9005 29.5133 97.9005 26.536C97.9005 23.5587 94.2037 22.1444 89.8369 22.1444C85.4701 22.1444 81.8229 23.5587 81.8229 26.536ZM107.978 35.2199V17.8521H135.245C140.108 17.8521 140.629 24.7248 136.858 26.2383V26.6601C141.423 27.7517 141.051 35.2199 135.99 35.2199H107.978ZM132.342 24.0549C133.285 24.0549 133.26 22.8143 132.342 22.8143H115.421V24.0549H132.342ZM132.963 29.0171H115.421V30.2577H132.963C133.905 30.2577 133.881 29.0171 132.963 29.0171ZM169.08 35.2199L165.508 29.0171H152.482L148.884 35.2199H140.324L150.323 17.8521H167.641L177.64 35.2199H169.08ZM155.335 24.0549H162.63L161.91 22.8143C161.91 22.8143 156.203 22.8143 156.055 22.8143L155.335 24.0549Z" fill="white"/>
</g>
<defs>
<clipPath id="clip0_22_34">
<rect width="103.38" height="24.8112" fill="white" transform="translate(5.99512 16.2199)"/>
</clipPath>
</defs>
</svg>
