<svg width="228" height="54" viewBox="0 0 228 54" fill="none" xmlns="http://www.w3.org/2000/svg">
<path fill-rule="evenodd" clip-rule="evenodd" d="M47.7631 0.00425057C47.9108 -0.0249656 48.041 0.100664 48.0257 0.251127C48.0315 1.8025 48.593 3.34438 49.5937 4.52691C50.8083 5.99356 52.6768 6.88319 54.5772 6.89049C54.8565 6.81599 54.9263 7.30463 54.639 7.30317C53.3444 7.30098 52.0549 7.69394 50.9807 8.41923C49.2177 9.59152 48.0737 11.6483 48.0315 13.7745C48.0228 13.9031 48.0533 14.1127 47.8817 14.1441C47.7428 14.2004 47.5973 14.0616 47.6126 13.9221C47.6169 12.4014 47.0707 10.8902 46.11 9.71642C44.907 8.2264 43.0306 7.28929 41.1142 7.28856C41.0131 7.29148 40.8938 7.27907 40.8422 7.17827C40.7491 7.04388 40.8763 6.83644 41.0407 6.86931C42.5033 6.86055 43.9586 6.35072 45.0998 5.42969C46.6569 4.20334 47.6126 2.24586 47.6126 0.2577C47.5988 0.14887 47.6468 0.0305451 47.7631 0.00425057ZM13.6376 4.89722C15.2042 4.89868 16.7708 4.89722 18.3374 4.89795C22.8866 16.7962 27.4315 28.6959 31.9771 40.5957C30.4862 40.5979 28.9959 40.5957 27.505 40.5957C26.4104 37.7427 25.3202 34.8868 24.2299 32.0324C18.7352 32.031 13.2412 32.0324 7.74718 32.0317C6.65696 34.8868 5.56529 37.7413 4.47361 40.5957C2.98192 40.5957 1.49096 40.5979 0 40.5942C4.54343 28.6952 9.08905 16.7955 13.6376 4.89722ZM9.54652 27.3213C13.8412 27.3228 18.1352 27.3191 22.4291 27.3228C20.2873 21.6994 18.1374 16.0782 15.9918 10.4563C13.8361 16.0746 11.6935 21.6987 9.54652 27.3213ZM34.5918 4.91694C36.1125 4.91548 37.634 4.91694 39.1548 4.91694C39.1556 16.8101 39.1556 28.704 39.1548 40.5971C37.6326 40.5935 36.1104 40.6052 34.5881 40.5913C34.5961 28.6996 34.5896 16.8086 34.5918 4.91767V4.91694ZM45.5376 15.1243C47.0591 15.1229 48.5799 15.1243 50.1007 15.1243C50.1014 23.6145 50.1021 32.1055 50.1007 40.5957C48.5799 40.5971 47.0591 40.5971 45.5383 40.5957C45.5369 32.1055 45.5369 23.6145 45.5383 15.1243H45.5376Z" fill="white"/>
<path fill-rule="evenodd" clip-rule="evenodd" d="M56.5562 4.91691C63.5804 4.91545 70.6047 4.91691 77.6296 4.91691C77.6296 6.47559 77.6296 8.03354 77.6289 9.59222C72.1625 9.59222 66.6962 9.59222 61.2298 9.59222C61.2291 13.2011 61.2291 16.8101 61.2291 20.4197H75.8114C75.8114 21.8988 75.8114 23.3778 75.8107 24.8576C70.9501 24.8576 66.0903 24.8576 61.2298 24.8576C61.2291 28.5455 61.2291 32.234 61.2298 35.9218C67.1267 35.9233 73.0237 35.9218 78.9206 35.9225V40.5964C71.4658 40.5964 64.011 40.5978 56.5562 40.5964V4.91691ZM221.707 11.7272C222.526 11.7272 223.345 11.7265 224.163 11.7272C224.161 11.885 224.161 12.0435 224.161 12.2012C223.846 12.2012 223.531 12.2012 223.219 12.2019C223.217 13.1325 223.217 14.0637 223.217 14.995H222.673C222.671 14.0637 222.673 13.1332 222.673 12.2019C222.35 12.2005 222.028 12.2019 221.708 12.2012C221.707 12.0427 221.707 11.885 221.708 11.7265L221.707 11.7272ZM224.654 11.7272H225.411C225.718 12.5818 226.003 13.4429 226.313 14.2953C226.624 13.4407 226.924 12.5825 227.236 11.7272H227.999C228 12.8162 227.997 13.9052 228 14.9943C227.82 14.9957 227.646 14.9957 227.472 14.9957C227.472 14.0922 227.46 13.188 227.502 12.2845C227.19 13.1916 226.856 14.0915 226.534 14.995C226.368 14.9972 226.204 14.995 226.039 14.9892C225.744 14.1061 225.436 13.226 225.129 12.3466C225.149 13.2289 225.144 14.1127 225.144 14.9957C224.978 14.9957 224.815 14.9957 224.654 14.9957C224.653 13.906 224.654 12.8162 224.654 11.7265V11.7272ZM150.353 14.2383C150.874 14.1682 151.399 14.1609 151.925 14.139C151.925 15.6706 151.923 17.203 151.925 18.7354C149.693 18.742 147.476 19.6126 145.852 21.1538C144.321 22.5766 143.313 24.5545 143.063 26.6354C142.963 27.3827 143.004 28.1379 142.996 28.8895V40.5956C141.475 40.5971 139.954 40.5956 138.433 40.5956C138.432 32.0317 138.433 23.4677 138.433 14.9037C139.955 14.9037 141.475 14.9037 142.997 14.9044C142.996 15.7809 142.997 16.6574 142.996 17.5346C145.044 15.7254 147.642 14.5502 150.354 14.2376L150.353 14.2383ZM118.753 14.5363C121.507 13.933 124.448 14.2215 127.032 15.3551C129.466 16.4156 131.573 18.2146 133.004 20.4577C134.597 22.9177 135.336 25.9102 135.11 28.8332C134.923 31.4159 133.973 33.9373 132.409 35.9963C130.873 38.0356 128.752 39.6257 126.364 40.5168C124.809 41.0982 123.144 41.3954 121.484 41.3611C118.158 41.1456 114.963 39.5921 112.669 37.1752C112.667 42.7832 112.669 48.3912 112.668 53.9993C111.146 54 109.626 53.9993 108.105 54C108.103 45.9466 108.105 37.8924 108.105 29.839C108.113 28.3541 108.045 26.8546 108.322 25.3872C108.797 22.6774 110.132 20.1312 112.074 18.1934C113.893 16.3682 116.238 15.0768 118.753 14.5363H118.753ZM120.766 18.6054C119.371 18.7434 118.008 19.2204 116.832 19.9873C114.852 21.2633 113.415 23.3559 112.948 25.6735C112.748 26.5872 112.749 27.5273 112.768 28.4578C112.802 29.5235 113.024 30.5833 113.431 31.5693C114.339 33.8065 116.194 35.6311 118.44 36.4974C120.966 37.4936 123.943 37.2343 126.252 35.7991C128.376 34.5099 129.918 32.2932 130.368 29.8397C130.548 28.9275 130.536 27.994 130.514 27.0693C130.424 25.0132 129.594 23.0002 128.21 21.4832C126.366 19.4154 123.516 18.3103 120.766 18.6054ZM157.318 17.6193C160.425 14.8153 164.908 13.6007 168.985 14.5604C171.167 15.0681 173.198 16.2206 174.76 17.8334C176.709 19.8033 177.928 22.4795 178.151 25.2462C178.24 26.1687 178.166 27.0934 178.179 28.0174C178.179 28.6798 178.186 29.3431 178.158 30.0055C171.256 30.007 164.353 30.0033 157.449 30.007C157.974 32.0784 159.224 33.9512 160.934 35.2243C162.897 36.6931 165.461 37.3709 167.883 36.94C169.956 36.5792 171.871 35.4492 173.242 33.8518C174.376 34.751 175.499 35.664 176.627 36.5726C174.477 39.137 171.346 40.8498 168.029 41.2479C165.609 41.5532 163.108 41.161 160.886 40.1538C159.099 39.3525 157.491 38.1546 156.203 36.677C154.687 34.946 153.617 32.8242 153.13 30.5709C152.572 28.0298 152.765 25.3258 153.69 22.8936C154.453 20.8762 155.708 19.048 157.318 17.6193ZM161.05 20.2678C159.203 21.5263 157.867 23.5079 157.384 25.6961C162.803 25.6961 168.222 25.6969 173.641 25.6961C173.515 24.266 172.985 22.8739 172.118 21.7315C170.952 20.1699 169.163 19.1013 167.244 18.8026C165.095 18.4768 162.838 19.0378 161.051 20.2685L161.05 20.2678ZM188.107 14.4494C189.655 14.1645 191.26 14.1346 192.802 14.4677C195.42 15.0184 197.792 16.615 199.316 18.8179C198.179 19.5871 197.045 20.3627 195.904 21.1253C195.157 20.0677 194.113 19.2182 192.917 18.7244C191.312 18.0481 189.464 18.0335 187.823 18.5944C186.943 18.9012 186.114 19.4432 185.606 20.2422C185.205 20.8528 185.057 21.6344 185.237 22.3458C185.432 23.0842 186.071 23.5867 186.696 23.96C187.991 24.6867 189.447 25.0512 190.887 25.3594C192.155 25.588 193.417 25.8693 194.641 26.2783C195.775 26.6362 196.865 27.1738 197.786 27.9341C198.947 28.8997 199.74 30.3021 199.939 31.8052C200.137 33.2938 200.064 34.8547 199.507 36.2622C199.002 37.4724 198.149 38.5323 197.091 39.2984C196.021 40.0727 194.784 40.5898 193.504 40.8951C192.189 41.2019 190.835 41.3662 189.487 41.3341C186.809 41.2537 184.166 40.3334 182.014 38.7331C181.208 38.1393 180.475 37.4469 179.817 36.6924C180.959 35.7794 182.122 34.8905 183.27 33.9848C184.867 36.2176 187.641 37.525 190.37 37.3432C191.554 37.2584 192.762 36.9918 193.765 36.3272C194.402 35.905 194.959 35.3112 195.222 34.5808C195.49 33.7839 195.49 32.8789 195.167 32.0981C194.674 31.0756 193.648 30.4408 192.621 30.053C191.225 29.56 189.756 29.3372 188.327 28.9705C186.941 28.6105 185.534 28.2504 184.266 27.5631C182.698 26.7691 181.385 25.328 181.039 23.5641C180.721 21.9273 180.819 20.1429 181.625 18.6543C182.171 17.6442 182.968 16.775 183.921 16.1359C185.175 15.2821 186.621 14.7328 188.106 14.4494H188.107ZM207.413 15.342C206.326 15.8562 205.294 16.5398 204.524 17.4755C203.695 18.4432 203.15 19.6543 203.019 20.9266C202.898 22.1347 202.974 23.3939 203.43 24.5297C203.938 25.7268 204.877 26.7158 205.998 27.3585C207.234 28.1028 208.631 28.5038 210.016 28.8654C211.507 29.27 213.043 29.5023 214.516 29.98C215.556 30.3437 216.594 30.9339 217.169 31.9133C217.531 32.589 217.575 33.399 217.437 34.1433C217.282 34.9913 216.715 35.7085 216.034 36.2059C215.016 36.9451 213.756 37.2453 212.522 37.3388C209.783 37.5469 206.977 36.2454 205.38 33.995C205.265 34.0636 205.156 34.1425 205.055 34.228C204.01 35.0541 202.947 35.8561 201.912 36.6946C203.998 39.1253 206.97 40.7724 210.138 41.2085C211.465 41.413 212.815 41.3472 214.138 41.1712C215.673 40.9565 217.197 40.5292 218.534 39.725C219.536 39.1407 220.406 38.3248 221.032 37.3417C221.715 36.3162 222.041 35.0891 222.112 33.8672C222.184 32.4655 222.051 30.9938 221.359 29.7477C220.763 28.6178 219.787 27.7289 218.683 27.1153C217.461 26.4265 216.098 26.0519 214.748 25.7203C213.815 25.496 212.864 25.3645 211.937 25.1235C210.754 24.8197 209.562 24.4574 208.524 23.7949C208.022 23.4545 207.529 23.0178 207.35 22.4159C207.12 21.6139 207.319 20.7141 207.826 20.0596C208.361 19.3197 209.176 18.8369 210.028 18.555C211.751 17.9999 213.69 18.0707 215.327 18.8661C216.39 19.3694 217.312 20.1611 217.995 21.1216C219.133 20.3481 220.281 19.5885 221.416 18.8106C220.786 17.9013 220.008 17.0956 219.131 16.4237C217.162 14.903 214.653 14.1288 212.173 14.2325C210.536 14.2872 208.901 14.6466 207.413 15.342ZM80.9265 14.9592C82.7302 14.9592 84.5339 14.9592 86.3376 14.96C88.7377 18.0846 91.1363 21.2107 93.5342 24.3369C95.9335 21.2144 98.3344 18.0926 100.726 14.9629C102.529 14.9548 104.333 14.9592 106.138 14.9607C102.867 19.2394 99.5795 23.5049 96.3052 27.7807C99.5831 32.0521 102.863 36.3213 106.138 40.5942C104.337 40.6008 102.537 40.592 100.737 40.5986C98.3293 37.4783 95.9408 34.3419 93.532 31.2224C91.1414 34.3492 88.7369 37.4666 86.3456 40.5935C84.5411 40.5993 82.7367 40.5956 80.9323 40.5956C84.2088 36.3228 87.4889 32.0521 90.7668 27.78C87.4874 23.5057 84.2088 19.2313 80.9265 14.9592Z" fill="white"/>
</svg>
