<svg width="254" height="32" viewBox="0 0 254 32" fill="none" xmlns="http://www.w3.org/2000/svg">
<path fill-rule="evenodd" clip-rule="evenodd" d="M0 0H4.66667V12.0413V24.0824H0V0ZM4.66667 12.0413L15 0H21L10.6667 12.0413L21 24.0824H15L4.66667 12.0413ZM130.333 24.0824H114.667V0H130.333V3.98864H119.644V9.89696H128.667V14.1856H119.644V20.0939H130.333V24.0824ZM162.899 19.5298C163.937 20.2109 165.156 20.5717 166.402 20.5664C168.068 20.5626 169.664 19.9042 170.838 18.736C172.014 17.5678 172.672 15.9854 172.669 14.3371C172.669 13.1042 172.298 11.899 171.605 10.8744C170.913 9.84976 169.928 9.05168 168.776 8.58128C167.626 8.11072 166.359 7.98912 165.137 8.23184C163.916 8.4744 162.795 9.07024 161.916 9.944C161.036 10.8178 160.44 11.9301 160.201 13.14C159.961 14.3498 160.089 15.6029 160.57 16.7403C161.05 17.8779 161.86 18.8486 162.899 19.5298ZM160.578 6.67696C162.298 4.81328 164.701 3.6288 167.44 3.6288C172.929 3.6288 177.334 8.42416 177.334 14.3506C177.334 20.2768 172.656 24.4123 167.167 24.4123C164.427 24.4123 162.055 23.6706 160.333 21.6083V32H155.667V3.95872H160.578V6.67696ZM184.666 6.92784C185.308 5.92944 187.24 3.6288 190.666 3.6288C193.334 3.79376 194.334 4.61856 194.334 4.61856L191.834 7.9176C191.834 7.9176 190.666 7.75264 190 7.75264C186.933 7.75264 185.123 9.99488 184.666 11.5464V24.0824H180V3.95872H184.666V6.92784ZM213.001 17.8144C212.096 21.2827 208.673 24.4123 203.619 24.4123C197.08 24.4123 193 20.4894 193 14.2285C193 8.07136 197.179 3.6288 203.393 3.6288C208.73 3.6288 213.333 6.81136 213.333 13.8128L213.264 15.3066H198.155C198.198 18.7229 200.315 20.8792 203.619 20.8792C203.619 20.8792 206.978 20.932 208.333 17.8144H213.001ZM203.422 7.77776C200.372 7.77776 198.324 9.92096 198.17 12.467H208.365C208.336 9.75216 206.36 7.77776 203.422 7.77776ZM220.673 19.105C220.435 18.7434 220.229 18.4208 220.167 17.8144H215.333C215.36 18.9898 215.606 19.6864 216.06 20.5574V20.56L216.061 20.5626C216.541 21.4078 217.181 22.1254 217.98 22.7142L217.982 22.7162L217.985 22.7178C218.809 23.2803 219.764 23.7006 220.847 23.9802C221.961 24.2606 223.055 24.4123 224.333 24.4123C225.378 24.4123 226.552 24.2858 227.637 24.057C228.718 23.8285 229.697 23.4598 230.573 22.9499C231.479 22.4376 232.212 21.7704 232.773 20.949C233.338 20.1194 233.667 18.9928 233.667 17.8144C233.667 16.835 233.416 16.127 233.014 15.4542C232.637 14.7835 232.127 14.2278 231.482 13.7888C230.868 13.353 230.164 13.0082 229.37 12.7534C228.584 12.5016 227.785 12.2877 226.974 12.1114L226.972 12.1112C226.14 11.9358 225.333 11.7731 224.552 11.6229C223.779 11.4742 223.084 11.3011 222.469 11.1042C221.887 10.8848 221.413 10.6195 221.042 10.3106C220.716 10.0194 220.552 9.63952 220.552 9.15536C220.552 8.76368 220.67 8.47056 220.892 8.2568L220.895 8.25408L220.899 8.2512C221.14 7.99568 221.429 7.81056 221.766 7.6944L221.769 7.69344L221.772 7.69232C222.149 7.54736 222.538 7.45088 222.94 7.40256C223.378 7.35296 223.747 7.32864 224.05 7.32864C225.018 7.32864 225.863 7.5 226.59 7.83776L226.594 7.83872C227.287 8.15008 227.779 8.95696 227.999 9.89696H232.798C232.659 8.82352 232.253 7.5856 231.833 6.92784C231.327 6.1336 230.793 5.49328 229.993 5.00528C229.221 4.51904 228.344 4.17456 227.365 3.97072C226.416 3.74256 225.415 3.6288 224.362 3.6288C223.442 3.6288 222.469 3.71744 221.446 3.89408C220.442 4.07216 219.512 4.39056 218.664 4.84976C217.836 5.28656 217.141 5.87776 216.581 6.62192C216.036 7.3552 215.769 8.26624 215.769 9.34288C215.769 10.3371 215.954 11.1896 216.333 11.8934L216.335 11.8955C216.71 12.5661 217.207 13.1224 217.827 13.5622L217.828 13.564C218.467 13.9986 219.17 14.343 219.938 14.5979L219.94 14.5984C220.726 14.8504 221.538 15.0645 222.376 15.2406C223.183 15.416 223.977 15.5787 224.758 15.7291C225.531 15.8778 226.21 16.0629 226.798 16.2838L226.801 16.2853L226.806 16.2867C227.411 16.4811 227.897 16.7458 228.266 17.0768C228.621 17.3958 228.812 17.8051 228.836 18.3165C228.86 18.8341 228.726 19.2414 228.448 19.5546L228.447 19.5552C228.181 19.8571 227.828 20.0926 227.383 20.2594C226.929 20.4291 226.435 20.5512 225.902 20.6246C225.387 20.6741 224.927 20.6986 224.518 20.6986C223.349 20.6986 222.477 20.4677 221.648 19.9845C221.234 19.7438 220.91 19.4664 220.673 19.105ZM241.006 19.105C240.768 18.7434 240.564 18.4208 240.5 17.8144H235.667C235.693 18.9898 235.94 19.6864 236.393 20.5574L236.394 20.56L236.396 20.5626C236.875 21.4078 237.514 22.1254 238.313 22.7142L238.316 22.7162L238.317 22.7178C239.142 23.2803 240.097 23.7006 241.18 23.9802C242.294 24.2606 243.388 24.4123 244.666 24.4123C245.711 24.4123 246.885 24.2858 247.969 24.057C249.053 23.8285 250.032 23.4598 250.906 22.9499C251.811 22.4376 252.546 21.7704 253.105 20.949C253.673 20.1194 254 18.9928 254 17.8144C254 16.835 253.749 16.127 253.347 15.4542C252.971 14.7835 252.46 14.2278 251.816 13.7888C251.203 13.353 250.498 13.0082 249.703 12.7534C248.917 12.5016 248.12 12.2877 247.308 12.1114L247.307 12.1112C246.473 11.9358 245.666 11.7731 244.885 11.6229C244.112 11.4742 243.418 11.3011 242.803 11.1042C242.222 10.8848 241.747 10.6195 241.375 10.3106C241.051 10.0194 240.885 9.63952 240.885 9.15536C240.885 8.76368 241.003 8.47056 241.227 8.2568L241.228 8.25408L241.231 8.2512C241.473 7.99568 241.762 7.81056 242.1 7.6944L242.102 7.69344L242.105 7.69232C242.482 7.54736 242.87 7.45088 243.273 7.40256C243.711 7.35296 244.08 7.32864 244.383 7.32864C245.351 7.32864 246.196 7.5 246.925 7.83776L246.926 7.83872C247.62 8.15008 248.112 8.95696 248.334 9.89696H253.131C252.994 8.82352 252.586 7.5856 252.166 6.92784C251.66 6.1336 251.128 5.49328 250.326 5.00528C249.554 4.51904 248.677 4.17456 247.698 3.97072C246.749 3.74256 245.747 3.6288 244.696 3.6288C243.774 3.6288 242.802 3.71744 241.779 3.89408C240.773 4.07216 239.846 4.39056 238.996 4.84976C238.169 5.28656 237.474 5.87776 236.913 6.62192C236.369 7.3552 236.102 8.26624 236.102 9.34288C236.102 10.3371 236.287 11.1896 236.667 11.8934V11.8955C237.043 12.5661 237.541 13.1224 238.159 13.5622L238.163 13.564C238.8 13.9986 239.503 14.343 240.271 14.5979L240.273 14.5984C241.059 14.8504 241.872 15.0645 242.709 15.2406C243.516 15.416 244.31 15.5787 245.092 15.7291C245.864 15.8778 246.545 16.0629 247.131 16.2838L247.136 16.2853L247.139 16.2867C247.746 16.4811 248.23 16.7458 248.599 17.0768C248.955 17.3958 249.145 17.8051 249.169 18.3165C249.195 18.8341 249.061 19.2414 248.781 19.5546C248.514 19.8565 248.163 20.0926 247.717 20.2594C247.262 20.4291 246.77 20.5512 246.236 20.6246C245.722 20.6741 245.26 20.6986 244.851 20.6986C243.682 20.6986 242.81 20.4677 241.981 19.9845C241.568 19.7438 241.244 19.4664 241.006 19.105ZM153.667 3.95872H148.333L143 10.6667L137.667 3.95872H132.333L140.333 14.0206L132.333 24.0824H137.667L143 17.3746L148.333 24.0824H153.667L145.667 14.0206L153.667 3.95872ZM103 3.6288C99.5733 3.6288 97.6421 5.92944 97 6.92784V3.95872H92.3333V24.0824H97V11.5464C97.4556 9.99488 99.2662 7.75264 102.333 7.75264C105.217 7.75264 105.667 11.5464 105.667 11.5464V20.7835L105.666 20.8304C105.65 22.6142 107.102 24.0715 108.904 24.0811L108.96 24.0822L109 24.0824H112L112 20.1237H111.667C110.746 20.1237 110.333 19.3853 110.333 18.4742V12.2608V10.9704C110.214 8.93488 109.796 5.19504 106 4.00384C105.24 3.76528 104.024 3.6288 103 3.6288ZM73.3057 19.029C74.3209 19.6885 75.5128 20.0378 76.7305 20.0325C78.3584 20.0285 79.9178 19.3907 81.0663 18.2594C82.2147 17.128 82.8578 15.5957 82.8543 13.9995C82.8542 12.8054 82.4925 11.6382 81.8152 10.6459C81.138 9.65344 80.1755 8.88064 79.0499 8.42496C77.9243 7.96944 76.6861 7.85168 75.4922 8.08672C74.2984 8.32176 73.2025 8.89904 72.3434 9.74528C71.4844 10.5917 70.9007 11.669 70.6666 12.8408C70.4324 14.0125 70.5582 15.2261 71.028 16.3278C71.4978 17.4294 72.2905 18.3696 73.3057 19.029ZM87.3333 3.95872V18.4198C87.3333 20.6786 89.6666 20.1237 89.6666 20.1237V24.0824H86.3646C84.478 24.0824 83.3706 22.8382 82.9979 21.2643C82.1211 22.2626 81.0327 23.0611 79.8089 23.6048C78.585 24.1483 77.255 24.4238 75.9115 24.412C70.4377 24.412 66.0001 19.7605 66.0001 14.021C66.0001 8.28144 70.4377 3.6288 75.9115 3.6288C78.4812 3.6288 80.6439 4.8456 82.3334 6.59792V3.95872H87.3333ZM64 7.9176V3.95872H46.6667V7.9176H58L46.6667 20.1237V24.0826H64V20.1237H52.6667L64 7.9176ZM27.639 19.029C28.6542 19.6885 29.8461 20.0378 31.0637 20.0325C32.6917 20.0285 34.2512 19.3907 35.3996 18.2594C36.548 17.128 37.1912 15.5957 37.1877 13.9995C37.1875 12.8054 36.8258 11.6382 36.1485 10.6459C35.4713 9.65344 34.5089 8.88064 33.3833 8.42496C32.2577 7.96944 31.0195 7.85168 29.8255 8.08672C28.6317 8.32176 27.5358 8.89904 26.6767 9.74528C25.8176 10.5917 25.234 11.669 25 12.8408C24.7658 14.0125 24.8915 15.2261 25.3613 16.3278C25.8312 17.4294 26.6238 18.3696 27.639 19.029ZM41.6667 3.95872V18.4198C41.6667 20.6786 44 20.1237 44 20.1237V24.0824H40.698C38.8112 24.0824 37.704 22.8382 37.3313 21.2643C36.4543 22.2626 35.3661 23.0611 34.1422 23.6048C32.9184 24.1483 31.5883 24.4238 30.2449 24.412C24.7711 24.412 20.3333 19.7605 20.3333 14.021C20.3333 8.28144 24.7711 3.6288 30.2449 3.6288C32.8146 3.6288 34.9772 4.8456 36.6667 6.59792V3.95872H41.6667Z" fill="white"/>
</svg>
