<svg width="215" height="43" viewBox="0 0 215 43" fill="none" xmlns="http://www.w3.org/2000/svg">
<path d="M97.5025 37.616H105.243V21.6077C105.243 13.1369 99.8675 8.65025 93.3817 8.65025C89.0817 8.65025 85.8567 10.5167 83.5275 13.101H82.4883C80.7325 10.8038 77.6867 8.65025 73.1358 8.65025C69.015 8.65025 65.7542 10.4808 64.0342 12.5626H62.995V9.4399H55.7925V37.5801H63.4608V22.8639C63.4608 17.8389 64.93 16.116 70.09 16.116C75.25 16.116 76.6475 17.8389 76.6475 22.8639V37.5801H84.3875V22.8639C84.3875 17.8389 85.8208 16.116 90.945 16.116C96.105 16.116 97.5025 17.8389 97.5025 22.8639V37.616ZM25.0117 33.596C23.65 32.591 23.005 31.1194 23.005 28.8581C23.005 26.0225 23.865 22.5768 25.2983 21.0693C26.3017 20.0643 27.735 19.5977 29.67 19.5977C32.4292 19.5977 35.8333 20.3155 37.2308 21.7871C38.1983 22.7563 38.6283 24.0843 38.6283 25.9508C38.6283 28.6427 37.8758 32.4115 36.1917 33.9908C35.2242 34.8523 33.97 35.2471 32.1425 35.2471C29.67 35.2112 26.5525 34.6369 25.0117 33.596ZM37.1592 39.5184L36.8367 42.1027L44.0392 43L47.4433 15.111L40.2408 14.2137L39.9183 16.9057H39.0583C37.9833 15.0033 35.1167 12.419 29.67 12.419C22.1092 12.419 16.5192 18.0184 15.5158 25.6636C15.4083 26.4174 15.3725 27.1711 15.3725 27.9249C15.3725 35.2471 20.3175 41.2412 28.0575 42.1027C28.4875 42.1386 28.9175 42.1745 29.3475 42.1386C32.5725 42.1386 35.0092 40.7387 36.2633 39.5184H37.1592ZM199.807 31.2629C194.037 31.2629 192.138 29.3606 192.138 23.5818C192.138 17.803 194.037 15.8289 199.807 15.8289C205.576 15.8289 207.475 17.803 207.475 23.5818C207.475 29.3606 205.576 31.2629 199.807 31.2629ZM162.827 31.2629C157.057 31.2629 155.158 29.3606 155.158 23.5818C155.158 17.803 157.057 15.8289 162.827 15.8289C168.596 15.8289 170.495 17.803 170.495 23.5818C170.495 29.3606 168.596 31.2629 162.827 31.2629ZM126.814 31.2629C121.045 31.2629 119.146 29.3606 119.146 23.5818C119.146 17.803 121.045 15.8289 126.814 15.8289C132.583 15.8289 134.482 17.803 134.482 23.5818C134.482 29.3606 132.583 31.2629 126.814 31.2629ZM4.69417 0L0 37.5801L7.6325 38.5134L12.255 0.933224L4.69417 0ZM207.798 34.924V37.6519H215V9.51169H207.798V12.2396H206.758C205.612 10.6962 202.709 8.68614 198.803 8.68614C190.239 8.68614 184.362 15.2187 184.362 23.5818C184.362 31.9449 190.239 38.4416 198.803 38.4416C202.709 38.4416 205.612 36.4316 206.758 34.8881L207.798 34.924ZM126.814 8.68614C117.282 8.68614 111.37 15.2187 111.37 23.5818C111.37 31.9449 117.282 38.4416 126.814 38.4416C136.346 38.4416 142.258 31.9449 142.258 23.5818C142.258 15.2187 136.346 8.68614 126.814 8.68614ZM170.925 34.924V37.6519H178.127V0.323036H170.495V12.2037H169.456C168.309 10.6603 165.729 8.65025 161.823 8.65025C153.259 8.65025 147.382 15.1828 147.382 23.5459C147.382 31.909 153.259 38.4057 161.823 38.4057C165.729 38.4057 168.775 36.3957 169.886 34.8523C169.886 34.924 170.925 34.924 170.925 34.924Z" fill="white"/>
</svg>
