<svg width="127" height="53" viewBox="0 0 127 53" fill="none" xmlns="http://www.w3.org/2000/svg">
<path d="M49.7058 21.1696H55.3758V5.78738H62.8602V0.50769H49.731V21.1696H49.7058Z" fill="white"/>
<path d="M38.0129 16.5498C37.3829 16.5752 36.7781 16.4737 36.1985 16.2452C35.6189 16.0168 35.0897 15.6868 34.6613 15.2299C34.2329 14.7984 33.8801 14.2653 33.6533 13.6815C33.4265 13.0977 33.3257 12.4885 33.3509 11.8539H47.3117C47.3117 11.8539 47.4125 10.7878 47.4125 9.69636C47.4125 3.45211 43.7333 0 37.9877 0C31.9145 0 27.7061 4.44205 27.7061 10.8132C27.7061 17.1844 31.8641 21.7534 37.9373 21.7534C43.5569 21.7534 47.3621 18.4789 47.4629 13.6561H41.9189C41.7425 14.5445 41.2637 15.3314 40.5329 15.8645C39.8021 16.4229 38.8949 16.6767 38.0129 16.5498ZM38.0129 4.77203C38.4917 4.69588 38.9453 4.74665 39.3989 4.84818C39.8525 4.9751 40.2809 5.17816 40.6589 5.48276C41.0369 5.76197 41.3393 6.14272 41.5661 6.54885C41.7929 6.95498 41.9441 7.41188 41.9945 7.89416H33.6785C33.9557 6.95498 34.5353 6.14272 35.3417 5.55891C36.1481 5.00048 37.1057 4.72126 38.0885 4.77203H38.0129Z" fill="white"/>
<path d="M17.8529 0.50769L13.9469 13.1739L10.1669 0.50769H3.9173L0.666504 21.1696H5.8577L7.8233 8.30031L11.6537 21.1696H16.1141L20.0957 8.07187L21.9857 21.1696H27.2525L24.0017 0.50769H17.8529Z" fill="white"/>
<path d="M73.2172 0C67.1944 0 63.7672 2.99521 63.9184 8.07184H69.79C69.79 5.91427 70.8988 4.94971 73.2424 4.94971C74.9056 4.94971 75.964 5.66044 75.964 6.72653C75.964 7.41188 75.712 7.69109 74.6788 7.97031L70.0168 9.26485C65.4808 10.5086 63.4648 12.387 63.4648 15.5091C63.4648 19.215 66.136 21.6772 70.0672 21.6772C71.3272 21.8041 72.5872 21.5249 73.6708 20.8903C74.7544 20.2557 75.6112 19.2912 76.1152 18.1236V21.2457H81.5332V7.43726C81.4576 2.46216 78.3328 0 73.2172 0ZM71.2012 16.8544C69.7648 16.8544 69.0592 16.1437 69.0592 15.1284C69.0592 14.0876 69.5632 13.5546 71.1004 13.0723L76.0144 11.6762V12.057C76.0396 12.6916 75.9136 13.3261 75.6868 13.91C75.46 14.4938 75.1072 15.0268 74.6536 15.4837C74.2 15.9406 73.6708 16.296 73.066 16.5244C72.4612 16.7783 71.8312 16.8798 71.2012 16.8544Z" fill="white"/>
<path d="M109.279 26.6777V31.9574H115.15V47.3396H120.82V31.9574H126.667V26.6777H109.279Z" fill="white"/>
<path d="M88.8917 26.6777H82.6673L78.2573 34.3434H76.0145V26.6777H70.3445V47.3396H76.0145V39.42H78.2321L82.9697 47.3396H89.3705L83.0957 36.8055L88.8917 26.6777Z" fill="white"/>
<path d="M38.3657 26.17C32.3429 26.17 28.8905 29.1653 29.0669 34.2419H34.9385C34.9385 32.0843 36.0473 31.1198 38.3909 31.1198C40.0541 31.1198 41.1125 31.8305 41.1125 32.8966C41.1125 33.5565 40.8605 33.8358 39.8021 34.1404L35.1401 35.4349C30.6293 36.6787 28.6133 38.557 28.6133 41.6791C28.6133 45.3597 31.2845 47.8472 35.2157 47.8472C36.4757 47.9742 37.7357 47.7203 38.8193 47.0604C39.9029 46.4258 40.7597 45.4358 41.2385 44.2682V47.3904H46.6565V33.5565C46.6061 28.6322 43.4813 26.17 38.3657 26.17ZM36.3245 43.0498C34.9133 43.0498 34.2077 42.3391 34.2077 41.2984C34.2077 40.2577 34.7117 39.7246 36.2741 39.2931L41.1629 37.8971V38.2524C41.1881 38.887 41.0621 39.5216 40.8353 40.1308C40.6085 40.7146 40.2305 41.273 39.8021 41.7045C39.3485 42.1614 38.8193 42.5168 38.2145 42.7452C37.5845 42.9483 36.9545 43.0752 36.3245 43.0498Z" fill="white"/>
<path d="M60.4408 26.1954C59.2564 26.1193 58.072 26.4239 57.0892 27.0838C56.0812 27.7184 55.3252 28.683 54.8968 29.7998V26.6523H49.2268V53H54.8968V44.319C55.3252 45.4104 56.1064 46.3496 57.0892 46.9842C58.072 47.6188 59.2564 47.9234 60.4156 47.8472C65.0776 47.8472 68.1772 44.1921 68.1772 37.034C68.2024 29.8506 65.128 26.1954 60.4408 26.1954ZM58.8784 42.5422C56.2828 42.5422 54.7456 40.7653 54.7456 37.0086C54.7456 33.2519 56.308 31.4751 58.8532 31.4751C61.4236 31.4751 62.6836 33.2773 62.6836 37.0086C62.6836 40.7653 61.3732 42.5422 58.8532 42.5422H58.8784Z" fill="white"/>
<path d="M17.8529 26.6777L13.9469 39.3439L10.1669 26.6777H3.9173L0.666504 47.3396H5.8577L7.8233 34.4703L11.6537 47.3396H16.1141L20.0957 34.2672L21.9857 47.3649H27.2525L24.0017 26.7031H17.8529V26.6777Z" fill="white"/>
<path d="M98.5434 42.7452C97.9134 42.7706 97.3086 42.669 96.729 42.4406C96.1494 42.2121 95.6202 41.8822 95.1918 41.4253C94.7634 40.9937 94.4106 40.4607 94.1838 39.8769C93.957 39.2931 93.8562 38.6839 93.8814 38.0493H107.842C107.842 38.0493 107.943 36.9832 107.943 35.8917C107.943 29.6475 104.289 26.1954 98.5182 26.1954C92.445 26.1954 88.2366 30.6374 88.2366 36.9832C88.2366 43.329 92.3946 47.9233 98.4678 47.9233C104.087 47.9233 107.893 44.6489 108.019 39.8261H102.475C102.323 40.7145 101.819 41.5268 101.089 42.0598C100.358 42.6183 99.4506 42.8467 98.5434 42.7452ZM98.5434 30.9674C99.0222 30.9166 99.4758 30.942 99.9294 31.0689C100.383 31.1959 100.811 31.3989 101.189 31.7035C101.567 31.9827 101.87 32.3635 102.097 32.7696C102.323 33.1757 102.475 33.6326 102.525 34.1149H94.1838C94.461 33.1757 95.0406 32.3381 95.847 31.7797C96.6534 31.2212 97.611 30.942 98.5938 30.9928H98.5434V30.9674Z" fill="white"/>
</svg>
