<svg width="165" height="36" viewBox="0 0 165 36" fill="none" xmlns="http://www.w3.org/2000/svg">
<g clip-path="url(#clip0_81_1373)">
<path fill-rule="evenodd" clip-rule="evenodd" d="M20.3868 0.0982624C16.6989 -0.291302 12.9813 0.47414 9.7448 2.28938C6.50834 4.10461 3.91196 6.88054 2.31254 10.2356C0.71312 13.5906 0.189173 17.3601 0.812716 21.0259C1.43626 24.6917 3.17668 28.0738 5.79476 30.7074C8.41284 33.341 11.7801 35.0968 15.4336 35.7335C19.0871 36.3701 22.8476 35.8563 26.1981 34.2628C29.5486 32.6692 32.3248 30.0741 34.1449 26.8341C35.965 23.5942 36.7398 19.8684 36.3627 16.1689C35.9478 12.0568 34.1326 8.21354 31.2227 5.28642C28.3129 2.3593 24.4861 0.527077 20.3868 0.0982624ZM19.8051 27.5248C17.8217 27.7917 15.8047 27.4285 14.0377 26.4865C12.2707 25.5444 10.8425 24.0707 9.95377 22.2726C9.06505 20.4745 8.76052 18.4424 9.08297 16.4617C9.40543 14.4811 10.3387 12.6516 11.7515 11.2303C13.1644 9.809 14.9858 8.86741 16.9599 8.53785C18.9339 8.20829 20.9613 8.50732 22.7571 9.39292C24.5529 10.2785 26.0269 11.7062 26.9718 13.4752C27.9168 15.2442 28.2852 17.2658 28.0253 19.2556C27.7526 21.3486 26.7994 23.2931 25.3134 24.788C23.8274 26.2829 21.8914 27.2448 19.8051 27.5248ZM45.9631 0.810362C45.3405 0.811857 44.7262 0.952513 44.1646 1.2221C43.6031 1.49168 43.1086 1.88341 42.7171 2.36877C42.3255 2.85414 42.0468 3.42094 41.9012 4.02793C41.7556 4.63491 41.7468 5.26682 41.8754 5.87766C42.2692 7.85658 44.1124 9.20872 46.1204 9.20872H57.7727L39.639 33.274C39.5049 33.4516 39.4228 33.6632 39.4019 33.8851C39.3809 34.1069 39.4221 34.3302 39.5206 34.5299C39.6191 34.7296 39.7712 34.8979 39.9597 35.0158C40.1483 35.1337 40.3659 35.1966 40.5881 35.1975H69.0325C71.0391 35.1975 72.8837 33.8457 73.2775 31.8664C73.4061 31.2557 73.3974 30.6239 73.2519 30.0169C73.1064 29.41 72.8279 28.8433 72.4365 28.3579C72.0452 27.8724 71.5508 27.4806 70.9895 27.2109C70.4282 26.9411 69.8139 26.8002 69.1915 26.7984H54.994L73.1138 2.7519C73.2492 2.57251 73.3321 2.35883 73.3532 2.13483C73.3743 1.91083 73.3327 1.68537 73.2331 1.48374C73.1335 1.28212 72.9799 1.11231 72.7895 0.993369C72.599 0.874426 72.3793 0.811054 72.1549 0.810362H45.9631ZM159.625 0.907235C158.684 1.1318 157.847 1.67192 157.253 2.43832C156.658 3.20471 156.343 4.15147 156.358 5.12205V19.105L133.764 1.07447C133.587 0.933425 133.374 0.845407 133.149 0.820538C132.924 0.795669 132.697 0.834961 132.493 0.933893C132.29 1.03282 132.118 1.18738 131.998 1.37977C131.878 1.57217 131.815 1.79459 131.816 2.02144V30.8933C131.8 31.8639 132.116 32.8107 132.71 33.5771C133.304 34.3435 134.141 34.8836 135.083 35.1081C135.694 35.243 136.328 35.2386 136.938 35.095C137.547 34.9515 138.117 34.6726 138.605 34.2788C139.093 33.8851 139.486 33.3865 139.756 32.82C140.026 32.2535 140.166 31.6334 140.165 31.0054V16.9014L162.759 34.9324C162.936 35.0733 163.149 35.1613 163.374 35.1861C163.599 35.211 163.826 35.1717 164.03 35.0728C164.233 34.9739 164.405 34.8194 164.524 34.6271C164.644 34.4348 164.708 34.2125 164.707 33.9857V5.00852C164.708 4.38076 164.568 3.76086 164.298 3.19451C164.028 2.62817 163.634 2.12982 163.147 1.73622C162.659 1.34263 162.089 1.06381 161.48 0.920337C160.871 0.776861 160.237 0.772384 159.625 0.907235ZM100.797 8.40485C110.354 8.40485 117.494 13.4694 117.494 17.9997C117.494 22.5299 110.354 27.5945 100.797 27.5945C91.2404 27.5945 84.0998 22.5299 84.0998 17.9997C84.0998 13.4694 91.2404 8.40485 100.797 8.40485ZM100.797 0.00682804C86.9642 0.00682804 75.7508 8.06257 75.7508 17.9997C75.7508 27.9368 86.9642 35.9925 100.797 35.9925C114.63 35.9925 125.843 27.9368 125.843 17.9997C125.843 8.06257 114.629 0.00682804 100.797 0.00682804Z" fill="white"/>
</g>
<defs>
<clipPath id="clip0_81_1373">
<rect width="164" height="36" fill="white" transform="translate(0.666748)"/>
</clipPath>
</defs>
</svg>
