<svg width="205" height="24" viewBox="0 0 205 24" fill="none" xmlns="http://www.w3.org/2000/svg">
<path d="M6.55951 23.5613L0.333252 0.414838H4.41751L9.20216 18.1931L14.3294 0.41313L18.1365 0.414838L23.2816 18.287L28.0875 0.419105L32.1717 0.41313L25.9421 23.5578L21.2076 23.5527L16.2351 6.26695L11.2558 23.557L6.55951 23.5613ZM34.9886 0.426788H38.8765V23.5467H34.9886V0.426788ZM47.1895 19.9199H56.6543V23.5467H43.3815V0.426788H47.1895V19.9199ZM68.6138 0.453249C71.8047 0.453249 74.4593 1.57314 76.5511 3.78646C78.6693 5.99979 79.7412 8.7466 79.7412 11.9996C79.7412 15.2261 78.6693 17.9729 76.5503 20.2135C74.4593 22.4269 71.8047 23.5467 68.6138 23.5467H59.4704V0.426788H68.6138V0.453249ZM68.6138 19.9464C70.8128 19.9464 72.6088 19.2003 73.9501 17.7066C75.3441 16.2128 76.0411 14.2931 76.0411 12.0269C76.0411 9.70687 75.3441 7.8401 73.9501 6.34634C72.5816 4.85258 70.7856 4.10656 68.6138 4.10656H63.3047V19.9464H68.6138ZM100.254 16.9418C100.254 18.8367 99.5844 20.4107 98.2168 21.6646C96.8491 22.9185 95.2401 23.5587 93.2562 23.5587H83.3078V0.426788H92.532C94.436 0.426788 96.0442 1.06697 97.3583 2.26795C98.6996 3.49454 99.3431 5.01647 99.3431 6.83032C99.3431 8.85756 98.5381 10.4051 96.9835 11.5523C99.0209 12.6193 100.254 14.5407 100.254 16.9418ZM87.1421 4.00156V10.085H92.5583C94.2481 10.085 95.535 8.75086 95.535 7.04371C95.535 5.33656 94.2481 4.00156 92.5583 4.00156H87.1421ZM93.2825 19.9831C95.0522 19.9831 96.4471 18.5695 96.4471 16.7548C96.4471 14.941 95.0522 13.5266 93.2825 13.5266H87.1421V20.0104H93.2825V19.9831ZM107.682 19.9301H117.978V23.5587H103.874V0.426788H117.818V4.05449H107.682V10.0585H116.987V13.6606H107.682V19.9301ZM134.657 23.5587L129.723 15.1279H125.218V23.5587H121.411V0.426788H130.715C132.807 0.426788 134.576 1.14721 135.998 2.6145C137.445 4.02888 138.197 5.78981 138.197 7.87083C138.197 10.8054 136.346 13.5002 133.584 14.5671L138.866 23.5587H134.657ZM125.218 4.00156V11.7392H130.689C132.726 11.7392 134.335 10.0321 134.335 7.87083C134.335 5.73603 132.7 4.00156 130.689 4.00156H125.218ZM155.009 23.5587L150.102 15.1237H145.597V23.5587H141.79V0.414838H151.094C153.186 0.414838 154.955 1.13526 156.376 2.60341C157.824 4.01864 158.575 5.78042 158.575 7.86229C158.575 10.7986 156.725 13.495 153.963 14.5629L159.245 23.5587H155.009ZM145.597 3.99132V11.7333H151.067C153.105 11.7333 154.714 10.0244 154.714 7.86229C154.714 5.72664 153.078 3.99132 151.067 3.99132H145.597ZM162.034 0.417399H165.842V23.5587H162.034V0.417399ZM174.154 19.9301H184.451V23.5578H170.346V0.426788H184.29V4.05619H174.154V10.0594H183.458V13.6615H174.154V19.9301ZM187.106 18.293L190.404 16.3733C191.342 18.9869 193.246 20.2665 196.168 20.2665C199.064 20.2665 200.486 19.0399 200.486 17.2269C200.486 16.2666 200.083 15.5735 199.333 15.0929C198.582 14.5868 197.188 14.026 195.204 13.4404C192.977 12.7738 191.878 12.347 190.323 11.3338C188.822 10.2668 188.07 8.74745 188.07 6.66643C188.07 4.61358 188.795 3.01312 190.269 1.813C191.718 0.586407 193.487 0 195.552 0C199.279 0 202.148 1.92055 203.65 5.09329L200.432 6.9336C199.466 4.79966 197.831 3.70708 195.552 3.70708C193.326 3.70708 191.905 4.82697 191.905 6.58705C191.905 8.29334 193.031 9.09315 196.598 10.1866C197.482 10.4802 198.126 10.6936 198.528 10.8532C198.957 10.9864 199.52 11.2271 200.244 11.5199C200.995 11.8135 201.585 12.16 201.934 12.4537C203.167 13.4131 204.48 14.9871 204.32 17.1996C204.32 19.2797 203.569 20.9604 202.041 22.187C200.539 23.4136 198.555 24 196.088 24C191.583 23.9735 188.312 21.8396 187.106 18.293Z" fill="white"/>
</svg>
