<svg width="214" height="41" viewBox="0 0 214 41" fill="none" xmlns="http://www.w3.org/2000/svg">
<path d="M100.08 34.5938H104.309L110.204 12.6844V34.5938H114.945V5.63751H108.409L102.515 26.9063L96.6203 5.63751H89.9568V34.5938H94.0574V12.6844L100.08 34.5938ZM134.807 20.2438C134.807 15.1188 132.244 13.1969 126.99 13.1969C123.659 13.1969 121.096 14.2219 119.558 15.1188V19.2188C120.839 18.1938 123.787 17.1688 126.35 17.1688C128.784 17.1688 129.809 18.0656 129.809 20.2438V21.3969H129.041C121.48 21.3969 118.02 23.9594 118.02 28.1875C118.02 32.4156 120.583 34.85 124.427 34.85C127.375 34.85 128.656 33.9531 129.553 32.9281H129.809C129.809 33.4406 130.066 34.2094 130.194 34.5938H135.063C134.935 32.9281 134.807 31.1344 134.807 29.4688V20.2438ZM129.809 29.5969C129.169 30.4938 128.015 31.2625 126.221 31.2625C124.171 31.2625 123.146 29.9813 123.146 28.1875C123.146 25.7531 124.812 24.8563 129.169 24.8563H129.938V29.5969H129.809ZM143.393 13.5813H138.78V40.6156H143.777V32.1594C145.059 34.0813 146.853 34.9781 149.031 34.9781C153.901 34.9781 157.232 31.1344 157.232 24.0875C157.232 17.0406 154.029 13.1969 149.287 13.1969C146.981 13.1969 145.059 14.2219 143.649 16.2719L143.393 13.5813ZM147.621 31.1344C145.059 31.1344 143.649 28.9563 143.649 24.2156C143.649 19.3469 145.059 17.1688 147.878 17.1688C150.569 17.1688 151.978 19.3469 151.978 24.0875C151.978 28.9563 150.569 31.1344 147.621 31.1344ZM172.738 34.5938H178.376L170.431 23.3188L177.479 13.5813H172.481L165.433 23.3188V13.5813H160.436V34.5938H165.433V24.3438L172.738 34.5938ZM195.035 33.1844V29.0844C193.497 30.1094 190.934 31.0063 188.499 31.0063C184.911 31.0063 183.502 29.3406 183.245 25.7531H195.163V23.0625C195.163 15.7594 191.959 13.0688 186.962 13.0688C180.939 13.0688 177.992 17.6813 177.992 24.0875C177.992 31.3906 181.58 34.9781 187.859 34.9781C191.318 34.9781 193.625 34.2094 195.035 33.1844ZM186.962 17.1688C189.396 17.1688 190.165 19.2188 190.165 21.7813V22.1656H183.245C183.374 18.8344 184.655 17.1688 186.962 17.1688ZM212.975 17.5531V13.5813H196.316V17.5531H202.211V34.5938H207.208V17.5531H212.975Z" fill="white"/>
<path fill-rule="evenodd" clip-rule="evenodd" d="M38.4431 20.5C38.4431 31.1142 29.8373 39.7188 19.2216 39.7188C8.60578 39.7188 0 31.1142 0 20.5C0 9.88578 8.60578 1.28125 19.2216 1.28125C29.8373 1.28125 38.4431 9.88578 38.4431 20.5ZM20.1186 12.0437H22.0407H22.1689V32.0312H26.0132V8.96875H20.1186C14.224 8.96875 11.1485 12.0437 11.1485 16.5281C11.1485 20.1156 12.8144 22.1656 15.8898 24.3437L10.6359 32.1594H15.121L20.6311 23.575L18.709 22.1656C16.2743 20.5 15.121 19.0906 15.121 16.2719C15.121 13.7094 16.7868 12.0437 20.1186 12.0437Z" fill="white"/>
<path fill-rule="evenodd" clip-rule="evenodd" d="M77.7223 29.0995C74.577 35.4157 68.059 39.7432 60.5074 39.7432C53.9681 39.7432 48.1554 36.4982 44.6776 31.5269L51.1529 22.9384L49.8715 32.0353L56.9194 34.4697L65.505 20.7603C65.1206 23.3228 64.4799 29.2166 70.1182 31.0103C72.7847 31.8218 75.3464 30.9435 77.7223 29.0995ZM79.4356 17.1522C76.6569 21.355 73.9729 24.3371 72.5529 23.9634C70.1182 23.3228 72.2966 15.5072 73.7062 10.5103V10.3822L65.8894 7.69157L56.535 22.9384L57.8164 14.6103L51.0248 12.3041L41.6706 24.5619C41.4025 23.2605 41.2691 21.9099 41.2858 20.5245C41.2858 9.8901 49.8714 1.30573 60.5074 1.30573C69.9923 1.30573 77.8466 8.13263 79.4356 17.1522Z" fill="white"/>
</svg>
